<svg xmlns="http://www.w3.org/2000/svg" xmlns:xlink="http://www.w3.org/1999/xlink" width="542.314" height="513.097" viewBox="0 0 542.314 513.097">
  <defs>
    <linearGradient id="linear-gradient" x1="0.5" x2="0.5" y2="1" gradientUnits="objectBoundingBox">
      <stop offset="0" stop-color="#1d4b5d"/>
      <stop offset="1" stop-color="#684a71"/>
    </linearGradient>
  </defs>
  <g id="logo" transform="matrix(0.966, -0.259, 0.259, 0.966, -1078.856, -891.867)">
    <path id="Subtraction_2" data-name="Subtraction 2" d="M-2075.324,1456.215a20.209,20.209,0,0,1-8.683-2.01l-127.227-60.128,10.674-18.938a47.065,47.065,0,0,1,5.941-8.288,47.1,47.1,0,0,1,7.589-6.812l63.049-45.274,65.735,111.179a19.835,19.835,0,0,1,2.884,10.4,19.715,19.715,0,0,1-2.617,9.537,20.845,20.845,0,0,1-7.212,7.441A19.442,19.442,0,0,1-2075.324,1456.215Zm-267.318-98.391-145.863-12a19.726,19.726,0,0,1-11.981-5.158,20.126,20.126,0,0,1-5.916-10.5,20.126,20.126,0,0,1,.988-12.009,19.727,19.727,0,0,1,8.73-9.693l116.16-65.469,30.78,65.127a46.829,46.829,0,0,1,4.348,16.228l2.755,33.473Zm179.777-153.069h0l-67.575-6.723a47.069,47.069,0,0,1-9.978-2.1,47.078,47.078,0,0,1-9.29-4.208l-43.476-25.706,80.173-111.65a19.93,19.93,0,0,1,7.361-6.334,19.719,19.719,0,0,1,8.726-2.024,20.5,20.5,0,0,1,13.191,4.781,19.236,19.236,0,0,1,4.6,5.672,20.265,20.265,0,0,1,2.266,7.589l14,140.706Z" transform="translate(3287.907 207.584)" fill="url(#linear-gradient)"/>
    <text id="T" transform="translate(860.991 1541.922)" fill="#fff" font-size="66" font-family="FinalSix-Heavy, FinalSix" font-weight="800"><tspan x="0" y="0">T</tspan></text>
    <text id="M" transform="translate(1042.57 1368.282)" fill="#fff" font-size="67" font-family="FinalSix-Heavy, FinalSix" font-weight="800"><tspan x="0" y="0">M</tspan></text>
    <text id="S" transform="translate(1129.312 1611.159)" fill="#fff" font-size="67" font-family="FinalSix-Heavy, FinalSix" font-weight="800"><tspan x="0" y="0">S</tspan></text>
  </g>
</svg>
