<svg xmlns="http://www.w3.org/2000/svg" xmlns:xlink="http://www.w3.org/1999/xlink" width="516.041" height="534.486" viewBox="0 0 516.041 534.486">
  <defs>
    <linearGradient id="linear-gradient" x1="1.569" y1="-1.103" x2="-0.107" y2="0.312" gradientUnits="objectBoundingBox">
      <stop offset="0" stop-color="#45a2c5"/>
      <stop offset="1"/>
    </linearGradient>
  </defs>
  <g id="logo" transform="translate(-762.959 -1170.514)">
    <g id="droplet" transform="translate(792 1298.605)" fill="url(#linear-gradient)">
      <path d="M 243.5000457763672 403.8948974609375 C 227.2794036865234 403.8948974609375 210.5387725830078 401.9204711914062 193.7431335449219 398.0263671875 C 177.5846710205078 394.2799987792969 161.2538604736328 388.7317199707031 145.2040405273438 381.5355529785156 C 129.6328582763672 374.5540161132812 114.2767639160156 366.0017395019531 99.56230926513672 356.116455078125 C 85.12358093261719 346.4162902832031 71.30976867675781 335.4392700195312 58.50485610961914 323.4902648925781 C 45.76821899414062 311.6051025390625 34.06222152709961 298.7893676757812 23.71203804016113 285.39892578125 C 13.27067565917969 271.8907165527344 4.233493328094482 257.8279113769531 -3.148506641387939 243.6011810302734 C -10.69132423400879 229.0645446777344 -16.5065975189209 214.3511810302734 -20.43277931213379 199.8699188232422 C -24.48559761047363 184.9215545654297 -26.54059791564941 170.1528167724609 -26.54059791564941 155.9739990234375 C -26.54059791564941 146.0329132080078 -24.03105163574219 134.0140991210938 -19.08168792724609 120.2513656616211 C -14.40750694274902 107.2540054321289 -7.561870098114014 92.70755004882812 1.265038967132568 77.01627349853516 C 9.609857559204102 62.18200302124023 19.65203857421875 46.4469108581543 31.11258506774902 30.24800300598145 C 42.095947265625 14.72363948822021 54.16767501831055 -0.9293603301048279 66.9923095703125 -16.27617835998535 C 79.56040191650391 -31.31599617004395 92.49267578125 -45.63490676879883 105.4297637939453 -58.83517837524414 C 118.4480361938477 -72.11817932128906 131.065673828125 -83.85381317138672 142.93212890625 -93.71599578857422 C 155.1482238769531 -103.8688125610352 166.2460327148438 -111.7648162841797 175.9171295166016 -117.1846313476562 C 180.8518524169922 -119.9500885009766 185.4183044433594 -122.0647201538086 189.4898529052734 -123.4699020385742 C 193.5682220458984 -124.8773574829102 197.1979522705078 -125.5910873413086 200.2781372070312 -125.5910873413086 C 204.9824066162109 -125.5910873413086 208.3631286621094 -123.9640884399414 210.6134033203125 -120.6172714233398 C 212.448486328125 -117.8879089355469 213.5560455322266 -113.9759063720703 213.9053192138672 -108.9898147583008 C 214.2868499755859 -103.5441818237305 213.7610321044922 -96.77381134033203 212.3426818847656 -88.86690521240234 C 209.2765808105469 -71.77499389648438 202.0025787353516 -49.07245254516602 190.7229461669922 -21.38990592956543 C 166.6695861816406 37.64173126220703 164.0806732177734 79.87736511230469 182.8081359863281 107.7306365966797 C 194.8455810546875 125.6339111328125 215.6679534912109 137.4163665771484 246.4649505615234 143.75146484375 C 258.9300537109375 146.3156433105469 273.1654968261719 148.0379180908203 289.9846801757812 149.0167236328125 C 306.223388671875 149.9617309570312 322.5924072265625 150.0891876220703 336.4629516601562 150.0891876220703 C 342.3277587890625 150.0891876220703 348.2583923339844 150.0620880126953 353.9937744140625 150.0360107421875 C 359.593505859375 150.0104522705078 365.3839416503906 149.9840087890625 370.9745788574219 149.9840087890625 C 384.7183227539062 149.9840087890625 400.7423095703125 150.1224517822266 415.3852233886719 151.1493682861328 C 430.3216857910156 152.1968231201172 442.2359619140625 154.0540008544922 451.8086853027344 156.8270874023438 C 457.0637512207031 158.3494567871094 461.7178649902344 160.1893615722656 465.6417541503906 162.2957305908203 C 469.7171325683594 164.4834594726562 473.1610412597656 167.0422821044922 475.877685546875 169.9010925292969 C 478.6849365234375 172.8552703857422 480.8287658691406 176.2509155273438 482.2494812011719 179.9937286376953 C 483.7428588867188 183.9280090332031 484.5000305175781 188.4044647216797 484.5000305175781 193.298828125 C 484.5000305175781 207.5657348632812 482.857666015625 221.8234558105469 479.6186828613281 235.6759185791016 C 476.4612121582031 249.1790924072266 471.7492980957031 262.462646484375 465.6136779785156 275.1575622558594 C 459.5860290527344 287.6290893554688 452.1241149902344 299.6596374511719 443.4351196289062 310.9151916503906 C 434.8231201171875 322.0709228515625 424.9312133789062 332.562744140625 414.0341186523438 342.0991821289062 C 403.1310424804688 351.6408996582031 391.1321411132812 360.3045349121094 378.370849609375 367.8494567871094 C 365.4818420410156 375.4698181152344 351.7017517089844 382.015380859375 337.4133911132812 387.30419921875 C 322.8565063476562 392.6924438476562 307.6220397949219 396.8309020996094 292.1330261230469 399.604736328125 C 276.2362976074219 402.4514465332031 259.8738708496094 403.8948974609375 243.5000457763672 403.8948974609375 Z" stroke="none"/>
      <path d="M 200.2781372070312 -123.091064453125 C 197.4761352539062 -123.091064453125 194.120849609375 -122.4234161376953 190.3053894042969 -121.106689453125 C 186.3742065429688 -119.7499694824219 181.9444885253906 -117.6967010498047 177.1393127441406 -115.0037841796875 C 167.6007690429688 -109.6581420898438 156.6293029785156 -101.8490600585938 144.5299377441406 -91.7933349609375 C 132.7286682128906 -81.98533630371094 120.1742248535156 -70.30787658691406 107.2152099609375 -57.08523559570312 C 94.32412719726562 -43.93196105957031 81.43658447265625 -29.66241455078125 68.91058349609375 -14.67305755615234 C 56.12875366210938 0.6225814819335938 44.09820556640625 16.22203063964844 33.15341186523438 31.69194030761719 C 21.7423095703125 47.82076263427734 11.74658203125 63.48248672485352 3.44384765625 78.241943359375 C -5.31488037109375 93.81212615966797 -12.10214233398438 108.2308502197266 -16.729248046875 121.0973968505859 C -21.58078002929688 134.5880279541016 -24.04067993164062 146.3222198486328 -24.04067993164062 155.9740295410156 C -24.04067993164062 169.9319458007812 -22.01504516601562 184.4805755615234 -18.02005004882812 199.2157592773438 C -14.14041137695312 213.5251159667969 -8.39031982421875 228.0711212158203 -0.92950439453125 242.4497680664062 C 6.383758544921875 256.5440368652344 15.33984375 270.4798583984375 25.68994140625 283.8700561523438 C 35.95785522460938 297.1539306640625 47.57223510742188 309.869140625 60.21038818359375 321.6624755859375 C 72.9185791015625 333.5211181640625 86.62750244140625 344.4149475097656 100.9564819335938 354.0413208007812 C 115.5534973144531 363.8477478027344 130.78466796875 372.3306579589844 146.2268676757812 379.25439453125 C 162.1295776367188 386.3845825195312 178.3063049316406 391.8810424804688 194.3077697753906 395.5909423828125 C 210.9185791015625 399.4422302246094 227.4692230224609 401.3949279785156 243.5000457763672 401.3949279785156 C 259.7265014648438 401.3949279785156 275.940673828125 399.9646606445312 291.6923828125 397.1438598632812 C 307.0362243652344 394.3961181640625 322.126953125 390.2967529296875 336.5455017089844 384.9597473144531 C 350.6939392089844 379.72265625 364.3379516601562 373.2418518066406 377.0985107421875 365.6974792480469 C 389.727294921875 358.2308349609375 401.6003112792969 349.6583251953125 412.3876647949219 340.2179565429688 C 423.1629638671875 330.7880249023438 432.9430541992188 320.4151306152344 441.4561157226562 309.3874816894531 C 450.0396728515625 298.2685852050781 457.4101257324219 286.3859252929688 463.3627624511719 274.0696716308594 C 469.4183959960938 261.5401306152344 474.0686645507812 248.4310302734375 477.1842346191406 235.1067657470703 C 480.3796691894531 221.4405822753906 481.9999389648438 207.3743896484375 481.9999389648438 193.2988586425781 C 481.9999389648438 184.3319396972656 479.4044799804688 177.2417602539062 474.0653076171875 171.6231231689453 C 471.5320434570312 168.9572143554688 468.300048828125 166.5600280761719 464.459228515625 164.4982147216797 C 460.6898498535156 162.4746704101562 456.1994934082031 160.7015838623047 451.1129455566406 159.22802734375 C 441.7119445800781 156.5046691894531 429.9681396484375 154.6777648925781 415.2103271484375 153.6428527832031 C 400.6434020996094 152.6213073730469 384.6744995117188 152.4838562011719 370.9746704101562 152.4840393066406 C 365.3945922851562 152.484130859375 359.6123046875 152.5104827880859 354.0203857421875 152.5359497070312 C 348.2772216796875 152.5621337890625 342.3385925292969 152.5892181396484 336.4629516601562 152.5892181396484 C 322.556396484375 152.5892181396484 306.1420288085938 152.4613037109375 289.8394165039062 151.5124816894531 C 272.8984985351562 150.5266723632812 258.5457763671875 148.7889404296875 245.9612274169922 146.2002105712891 C 214.4907684326172 139.7266693115234 193.1545715332031 127.5993957519531 180.7334899902344 109.1255798339844 C 161.5060424804688 80.52876281738281 164.0163269042969 37.52821350097656 188.4077758789062 -22.33323669433594 C 199.6216735839844 -49.85432434082031 206.8465881347656 -72.38796997070312 209.8819427490234 -89.30833435058594 C 211.2639465332031 -97.01223754882812 211.7784881591797 -103.5752410888672 211.4114990234375 -108.8151550292969 C 211.0931243896484 -113.3592376708984 210.1265869140625 -116.8606872558594 208.5386810302734 -119.2223358154297 C 207.4220428466797 -120.8831481933594 205.3508605957031 -123.091064453125 200.2781372070312 -123.091064453125 M 200.2781066894531 -128.0910186767578 C 221.4774169921875 -128.0910186767578 224.7467498779297 -98.26571655273438 193.0381164550781 -20.44651031494141 C 127.8935852050781 139.4310150146484 234.0141143798828 147.5892181396484 336.4629211425781 147.5892181396484 C 348.0921630859375 147.5892181396484 359.6955261230469 147.4842224121094 370.9745483398438 147.4840240478516 C 433.6863403320312 147.4830017089844 486.9999389648438 150.7239685058594 486.9999389648438 193.2988586425781 C 486.9999389648438 310.9885864257812 377.9813232421875 406.3949279785156 243.5000457763672 406.3949279785156 C 109.0186767578125 406.3949279785156 -29.04067993164062 273.6636657714844 -29.04067993164062 155.9740295410156 C -29.04067993164062 71.11875915527344 145.491943359375 -128.0910186767578 200.2781066894531 -128.0910186767578 Z" stroke="none" fill="#45a2c5"/>
    </g>
    <g id="Subtraction_1" data-name="Subtraction 1" transform="matrix(0.966, 0.259, -0.259, 0.966, 875.123, 1101.269)" fill="#45a2c5">
      <path d="M 412.7007141113281 417.0166320800781 C 411.4991149902344 417.0166931152344 410.2661743164062 416.9034423828125 409.0361633300781 416.6800231933594 L 299.0636596679688 396.7035522460938 L 303.1228637695312 380.9001770019531 C 303.95166015625 377.674072265625 305.1351623535156 374.5313720703125 306.6405029296875 371.5594177246094 C 308.1458129882812 368.5877380371094 309.9792785644531 365.7744750976562 312.0899047851562 363.1978454589844 L 353.0322265625 313.2088623046875 L 425.7275085449219 384.4123229980469 C 427.2292175292969 385.8832702636719 428.4629516601562 387.5199890136719 429.3945007324219 389.2769775390625 C 430.2745666503906 390.9370422363281 430.8884582519531 392.70947265625 431.2191772460938 394.5449829101562 C 431.8487548828125 398.0393371582031 431.447509765625 401.6848449707031 430.0589294433594 405.0873413085938 C 428.6554565429688 408.5259399414062 426.3574523925781 411.4635314941406 423.4132080078125 413.58251953125 C 420.2920227050781 415.8288879394531 416.5876770019531 417.0163879394531 412.7007141113281 417.0166320800781 Z M 60.29871368408203 417.0166320800781 C 56.411865234375 417.01708984375 52.70771408081055 415.8302917480469 49.58666610717773 413.5846252441406 C 46.64271545410156 411.4663391113281 44.3447151184082 408.5293884277344 42.94111251831055 405.0912780761719 C 41.5520133972168 401.6883239746094 41.15061569213867 398.042236328125 41.78026580810547 394.5471801757812 C 42.11101531982422 392.711181640625 42.72501373291016 390.9383239746094 43.6052131652832 389.2779846191406 C 44.53691482543945 387.5206298828125 45.77091598510742 385.8835754394531 47.27296447753906 384.4123229980469 L 122.5634841918945 310.666259765625 L 161.4020080566406 356.4698791503906 C 164.9878692626953 360.7001342773438 167.7538146972656 365.4911193847656 169.6229095458984 370.7096862792969 L 178.6271820068359 395.8514099121094 L 63.96336364746094 416.6800231933594 C 62.73481369018555 416.9032287597656 61.50186538696289 417.0164794921875 60.29871368408203 417.0166320800781 Z M 231.6921081542969 237.4532775878906 L 231.6918182373047 237.4532775878906 C 227.5114135742188 237.4532318115234 223.351318359375 236.8835754394531 219.3271179199219 235.7602386474609 L 179.6702575683594 224.6924438476562 L 218.7247161865234 121.2348785400391 C 220.1866607666016 117.3617324829102 222.7071685791016 114.1741790771484 226.0137176513672 112.0169296264648 C 229.0938110351562 110.0075302124023 232.7198638916016 108.9453811645508 236.4998168945312 108.9453811645508 C 240.2798614501953 108.9453811645508 243.9059600830078 110.0075302124023 246.9861145019531 112.0169830322266 C 250.2928619384766 114.1742324829102 252.8135070800781 117.3617324829102 254.2756652832031 121.2349319458008 L 294.4895629882812 227.7638244628906 L 239.140869140625 236.8462829589844 C 236.6854095458984 237.2490386962891 234.1792602539062 237.4532775878906 231.6921081542969 237.4532775878906 Z" stroke="none"/>
      <path d="M 412.7006530761719 416.0166320800781 C 416.3766784667969 416.0164184570312 419.8790283203125 414.89404296875 422.8290710449219 412.7708740234375 C 425.6207580566406 410.7616882324219 427.8006591796875 407.9740905761719 429.133056640625 404.7094421386719 C 430.4498291015625 401.4829711914062 430.8308715820312 398.029541015625 430.2350158691406 394.7222900390625 C 429.9226684570312 392.9885864257812 429.3426208496094 391.3140869140625 428.5110168457031 389.7453918457031 C 427.6277770996094 388.0794677734375 426.455810546875 386.5255432128906 425.0277709960938 385.1267395019531 L 353.1132507324219 314.6880493164062 L 312.863525390625 363.8314819335938 C 310.7987670898438 366.3521423339844 309.0051574707031 369.1042175292969 307.5326232910156 372.0112915039062 C 306.0600280761719 374.9186401367188 304.9022216796875 377.9930419921875 304.0914001464844 381.14892578125 L 300.2994995117188 395.9116821289062 L 409.2148742675781 415.6961364746094 C 410.3860778808594 415.9088439941406 411.5588684082031 416.0166931152344 412.7006530761719 416.0166320800781 M 60.29861450195312 416.0166320800781 L 60.29856491088867 416.0166320800781 C 61.44201278686523 416.0164794921875 62.61486434936523 415.90869140625 63.78461456298828 415.6961364746094 L 177.2880859375 395.0782775878906 L 168.6815185546875 371.046875 C 166.8530120849609 365.9417724609375 164.1471099853516 361.2548828125 160.6392669677734 357.1165771484375 L 122.4956512451172 312.1325073242188 L 47.97271347045898 385.1267395019531 C 46.54431533813477 386.5258178710938 45.37211608886719 388.0801391601562 44.48876571655273 389.7463684082031 C 43.65696334838867 391.3153686523438 43.07681274414062 392.990234375 42.7644157409668 394.7244873046875 C 42.16846466064453 398.0323791503906 42.54971313476562 401.4864807128906 43.86696243286133 404.7133178710938 C 45.19951248168945 407.9774169921875 47.37931442260742 410.7644348144531 50.17071533203125 412.7728881835938 C 53.12056350708008 414.8953857421875 56.62271499633789 416.0170288085938 60.29861450195312 416.0166320800781 M 231.6921081542969 236.4532775878906 C 234.1252136230469 236.4532775878906 236.5769195556641 236.2534790039062 238.9789581298828 235.8594818115234 L 293.122802734375 226.9747467041016 L 253.3401184082031 121.5880813598633 C 251.9534606933594 117.9149780273438 249.5673675537109 114.8949279785156 246.4397125244141 112.8544845581055 C 243.5225067138672 110.9513320922852 240.0853118896484 109.9453811645508 236.4998168945312 109.9453811645508 C 232.9143676757812 109.9453811645508 229.4772644042969 110.9513320922852 226.5601196289062 112.8544845581055 C 223.4326629638672 114.8948822021484 221.0467681884766 117.9148788452148 219.6602630615234 121.5880813598633 L 180.9918365478516 224.0230407714844 L 219.5959625244141 234.7970275878906 C 223.5326690673828 235.8959808349609 227.6023101806641 236.4532318115234 231.6918182373047 236.4532775878906 L 231.6921081542969 236.4532775878906 M 412.7007751464844 418.0166320800781 C 411.4394226074219 418.0166931152344 410.1463623046875 417.8980407714844 408.8574523925781 417.6639404296875 L 297.8278198242188 397.4954223632812 L 302.1543273925781 380.6513671875 C 303.0011596679688 377.3550415039062 304.2104187011719 374.14404296875 305.7484130859375 371.1075744628906 C 307.2864074707031 368.0713195800781 309.1597290039062 365.1968688964844 311.3163146972656 362.5641174316406 L 352.9511108398438 311.7296447753906 L 426.4272766113281 383.6979370117188 C 428.0025634765625 385.240966796875 429.2981567382812 386.9604187011719 430.2780151367188 388.8085327148438 C 431.2064514160156 390.5599365234375 431.8542785644531 392.4302673339844 432.2033081054688 394.36767578125 C 432.8666076660156 398.0491333007812 432.4452514648438 401.8865966796875 430.9847717285156 405.4651794433594 C 429.5103759765625 409.0777282714844 427.0941772460938 412.1653747558594 423.9973754882812 414.3941955566406 C 420.7049255371094 416.7637939453125 416.7986145019531 418.0163879394531 412.7007751464844 418.0166320800781 Z M 60.29881286621094 418.0166320800781 C 56.20106506347656 418.01708984375 52.29486465454102 416.7651672363281 49.00261306762695 414.3963317871094 C 45.90606307983398 412.1682739257812 43.48991394042969 409.0813293457031 42.01531600952148 405.46923828125 C 40.55431365966797 401.8901672363281 40.13271331787109 398.0521240234375 40.79611587524414 394.369873046875 C 41.14516448974609 392.43212890625 41.79301452636719 390.5613708496094 42.72171401977539 388.8095703125 C 43.70171356201172 386.9610900878906 44.99756240844727 385.2412719726562 46.57321548461914 383.6979370117188 L 122.6313171386719 309.2000427246094 L 162.1647186279297 355.8231201171875 C 165.8285675048828 360.1454467773438 168.6546173095703 365.04052734375 170.5643615722656 370.3724670410156 L 179.9662628173828 396.6245422363281 L 64.14206695556641 417.6639404296875 C 62.85471343994141 417.8978271484375 61.56166458129883 418.0164794921875 60.29881286621094 418.0166320800781 Z M 231.6921081542969 238.4532775878906 L 231.6918182373047 238.4532775878906 C 227.4206085205078 238.4532318115234 223.1700592041016 237.8712310791016 219.0582122802734 236.723388671875 L 178.3487091064453 225.3618316650391 L 217.7891693115234 120.8817291259766 C 219.3266143798828 116.8085327148438 221.9816589355469 113.4535293579102 225.4673156738281 111.1794281005859 C 228.7103576660156 109.0636825561523 232.5253143310547 107.9453811645508 236.4998168945312 107.9453811645508 C 240.474365234375 107.9453811645508 244.2894134521484 109.0636825561523 247.5325164794922 111.1794281005859 C 251.018310546875 113.4535293579102 253.6735687255859 116.8085327148438 255.2112121582031 120.8817291259766 L 295.8563232421875 228.5529327392578 L 239.3028106689453 237.8330841064453 C 236.7938690185547 238.24462890625 234.2332611083984 238.4532775878906 231.6921081542969 238.4532775878906 Z" stroke="none" fill="#000"/>
    </g>
  </g>
</svg>
